<svg width="24" height="24" viewBox="0 0 24 24" fill="none" xmlns="http://www.w3.org/2000/svg">
<path d="M23.2742 11.8163C23.2742 10.374 22.1814 9.16032 20.7144 8.81401L24 0.0211945H7.71749L11.0106 8.84176C9.58968 9.21601 8.5423 10.4085 8.5423 11.8236C8.5423 12.8634 9.11568 13.7856 9.98662 14.3541C9.64312 14.7979 9.24543 15.2072 8.79487 15.5953C7.9468 16.3168 7.00631 16.8713 5.99043 17.2389C5.07356 16.6772 4.67643 15.6855 5.03531 14.7977C6.43349 14.4096 7.45031 13.2238 7.45031 11.8301C7.45031 10.1177 5.91431 8.73038 4.03406 8.73038C2.14668 8.73038 0.611618 10.1243 0.611618 11.8373C0.611618 12.6834 0.993181 13.4597 1.60481 14.0141C1.55118 14.1116 1.49793 14.2082 1.44431 14.3123C0.932431 15.2696 0.351556 16.3513 0.129556 17.565C-0.313507 19.9914 0.412306 21.9405 2.16206 23.0428C3.14793 23.6603 4.23337 23.9723 5.40243 23.9723C7.41131 23.9723 9.45187 23.0567 11.4229 22.1689C12.8291 21.5383 14.2807 20.8791 15.7097 20.5605C16.2371 20.4426 16.7871 20.373 17.3679 20.2969C18.5441 20.1444 19.7593 19.9849 20.8521 19.4093C22.128 18.7369 22.9989 17.6132 23.2515 16.3236C23.4418 15.3317 23.2515 14.3334 22.7621 13.4597C23.0964 12.9769 23.2752 12.4035 23.2742 11.8163ZM21.7845 11.8163C21.7845 12.78 20.9209 13.5638 19.8589 13.5638C18.7969 13.5638 17.9332 12.78 17.9332 11.8163C17.9332 11.5041 18.0249 11.2061 18.1852 10.9496C18.2462 10.8521 18.3231 10.7556 18.399 10.6721C18.4795 10.5863 18.5692 10.5097 18.6666 10.4436L18.6746 10.4363C18.7354 10.3946 18.8042 10.3528 18.873 10.3118C18.873 10.3118 18.8805 10.3118 18.8805 10.3044C18.9111 10.2906 18.9418 10.2699 18.9727 10.2561C18.9801 10.2561 18.9874 10.2488 18.9952 10.2488C19.0262 10.2356 19.0642 10.2218 19.1021 10.2077C19.1383 10.1951 19.174 10.1812 19.2092 10.1661C19.2167 10.1661 19.2246 10.1586 19.2319 10.1586C19.2626 10.1522 19.2934 10.1381 19.3236 10.1316C19.3316 10.1316 19.347 10.1243 19.3543 10.1243C19.3924 10.1177 19.4231 10.1104 19.4612 10.1036H19.4692L19.5836 10.0824C19.5915 10.0824 19.6061 10.0824 19.6142 10.0759C19.6449 10.0759 19.6751 10.0686 19.7059 10.0686H19.7439C19.782 10.0686 19.8208 10.062 19.8662 10.062H19.9657C19.9957 10.062 20.0194 10.062 20.0494 10.0686H20.0647C20.1262 10.0761 20.187 10.0824 20.2485 10.0965C21.1194 10.2626 21.7845 10.9703 21.7845 11.8163ZM9.84881 1.40776H21.8679L19.1096 8.79282C18.9952 8.81401 18.8803 8.84832 18.7661 8.88282L15.8629 3.50907L12.9514 8.84813C12.8364 8.81382 12.7142 8.79263 12.5925 8.77201L9.84881 1.40776ZM15.312 11.2125C15.1671 10.5606 14.8001 9.97838 14.2807 9.54844L15.8629 6.65026L17.4594 9.61069C16.9856 10.0406 16.6419 10.5885 16.5043 11.2125H15.312ZM11.4844 10.1175C11.5224 10.11 11.5532 10.1036 11.5912 10.0963H11.6139C11.6447 10.0898 11.6756 10.0898 11.7056 10.0823H11.7364C11.7671 10.0823 11.7898 10.0757 11.8206 10.0757H12.1187C12.1487 10.0757 12.1721 10.0823 12.1948 10.0823C12.2102 10.0823 12.2175 10.0823 12.2329 10.0898C12.2636 10.0963 12.2863 10.0963 12.3172 10.1036C12.3244 10.1036 12.3324 10.1036 12.3478 10.1102C12.3861 10.1175 12.4241 10.1241 12.4547 10.1314H12.4622C12.4929 10.1379 12.5237 10.1445 12.5537 10.1586C12.5617 10.1586 12.5691 10.1659 12.5844 10.1659C12.6071 10.1724 12.6379 10.1798 12.6606 10.1936C12.6686 10.1936 12.6759 10.2002 12.684 10.2002C12.714 10.2143 12.7449 10.2216 12.7757 10.2354H12.783C12.8211 10.2486 12.8518 10.2624 12.8826 10.2838H12.8901C12.9206 10.2977 12.9514 10.3181 12.9821 10.332C12.9896 10.332 12.9896 10.3395 12.9967 10.3395C13.0275 10.3526 13.0504 10.3738 13.0811 10.3877L13.0892 10.3943C13.1807 10.4567 13.2649 10.5263 13.3483 10.5958L13.3564 10.6024C13.4327 10.6785 13.5088 10.7619 13.5703 10.8521C13.7689 11.1296 13.8838 11.4557 13.8838 11.8093C13.8838 12.7733 13.0202 13.5563 11.9582 13.5563C10.8962 13.5563 10.0326 12.7733 10.0326 11.8093C10.0247 10.9978 10.6436 10.3116 11.4844 10.1175ZM3.96524 10.0684C5.02743 10.0684 5.89087 10.8521 5.89087 11.8159C5.89087 12.7798 5.02743 13.5634 3.96524 13.5634C2.90324 13.5634 2.03962 12.7798 2.03962 11.8159C2.03962 10.8521 2.90324 10.0684 3.96524 10.0684ZM21.7384 16.0809C21.5706 16.9678 20.9662 17.745 20.0801 18.2093C19.2472 18.6465 18.2233 18.7849 17.1459 18.9234C16.5579 18.9996 15.939 19.083 15.3427 19.2148C13.7535 19.5686 12.2256 20.2622 10.7432 20.9273C8.84831 21.7806 7.05974 22.5848 5.40243 22.5848C4.53881 22.5848 3.76687 22.3629 3.03374 21.8985C1.35281 20.8446 1.43624 18.8685 1.63556 17.7866C1.81856 16.7738 2.33062 15.8239 2.81981 14.9156C2.84981 14.8599 2.87324 14.8116 2.90324 14.7559C3.07181 14.8116 3.24749 14.8534 3.43068 14.8811C3.14062 16.3511 3.96524 17.8695 5.57006 18.6188L5.86068 18.7571L6.17362 18.6531C7.51105 18.2231 8.74874 17.523 9.84149 16.5868C10.4604 16.0596 10.9879 15.4913 11.4309 14.8738C11.6066 14.9018 11.7825 14.9091 11.9582 14.9091C13.5476 14.9091 14.8843 13.9172 15.2666 12.5858H16.5499C16.9322 13.9239 18.2694 14.9089 19.8589 14.9089C20.4932 14.9089 21.0814 14.7495 21.5852 14.4791C21.7845 14.9991 21.8452 15.5396 21.7384 16.0809Z" fill="#C7FAD6"/>
</svg>
