<svg width="24" height="24" viewBox="0 0 24 24" fill="none" xmlns="http://www.w3.org/2000/svg">
<path d="M14.5752 2.87256L12.999 2.91724L8.29396 2.92969C7.40553 2.93555 6.58595 3.40796 6.13551 4.17334L3.27687 9.85107L3.30214 9.81958C2.76717 10.6338 2.72221 11.7387 3.22633 12.5823L6.21095 17.5364C6.66725 18.2959 7.38429 18.7844 8.38551 18.7485C10.5051 18.6731 11.4368 18.6731 11.4368 18.6731L17.937 21.1025L17.7686 20.9352L17.9004 21.0637C18.0139 21.1736 18.1985 21.0417 18.1231 20.9062L16.4495 17.6133L19.5535 11.9927C20.0237 11.0222 20.1922 10.1733 19.7278 9.32007L19.0672 8.10425L18.7244 7.48022L18.5911 7.23706L18.5786 7.25098L16.7813 4.13306C16.3279 3.34424 15.4841 2.86231 14.5752 2.87256ZM17.937 21.1025L17.9385 21.1047V21.104L17.937 21.1025ZM8.39284 3.48633L15.104 10.8662L13.9028 12.0835L14.6148 17.8173L7.67433 10.9534L9.3904 9.29956L8.38112 3.51709L3.69105 9.33582L8.39284 3.48633ZM14.6301 17.844V17.8597L14.6243 17.8608V17.8517L14.6301 17.844Z" fill="#C7FAD6"/>
</svg>
