<svg width="447" height="440" viewBox="0 0 447 440" fill="none" xmlns="http://www.w3.org/2000/svg">
<path d="M445.089 213.886C440.149 255.686 421.089 304.286 382.949 326.616C325.349 360.356 330.169 412.246 217.749 434.816C201.355 438.188 184.643 439.764 167.909 439.516C159.718 439.374 151.544 438.706 143.439 437.516C71.9988 427.076 23.9088 377.416 6.2688 317.516C-16.9112 238.586 29.4188 187.006 60.1488 155.906C90.8788 124.806 113.369 27.9065 223.709 4.90646C240.543 1.32696 257.732 -0.303765 274.939 0.0464615C314.199 1.04646 357.019 13.8965 386.649 40.8065C388.882 42.8065 391.049 44.8965 393.149 47.0765C434.329 89.3065 451.829 156.896 445.089 213.886Z" fill="#47ED78"/>
<path opacity="0.7" d="M445.089 213.886C440.149 255.686 421.089 304.286 382.949 326.616C325.349 360.356 330.169 412.246 217.749 434.816C201.355 438.188 184.643 439.764 167.909 439.516C159.718 439.374 151.544 438.706 143.439 437.516C71.9988 427.076 23.9088 377.416 6.2688 317.516C-16.9112 238.586 29.4188 187.006 60.1488 155.906C90.8788 124.806 113.369 27.9065 223.709 4.90646C240.543 1.32696 257.732 -0.303765 274.939 0.0464615C314.199 1.04646 357.019 13.8965 386.649 40.8065C388.882 42.8065 391.049 44.8965 393.149 47.0765C434.329 89.3065 451.829 156.896 445.089 213.886Z" fill="white"/>
</svg>
